<svg fill="none" height="141" viewBox="0 0 28 141" width="28" xmlns="http://www.w3.org/2000/svg" xmlns:xlink="http://www.w3.org/1999/xlink"><clipPath id="a"><path d="m0 0h141v28h-141z" transform="matrix(0 1 -1 0 28 0)"/></clipPath><g clip-path="url(#a)"><path d="m10.9961 132.109h5l-2.5 8.889z" fill="#8e8ea0"/><path d="m13.4922 0v91.0119 45.5481" stroke="#8e8ea0" stroke-miterlimit="16"/><path d="m11 83.7409v-1.0733h-7.26836v-2.45h-.89833v5.9734h.89833v-2.4501zm0-4.0692v-1.0383h-2.90501c-1.435 0-2.13501-.6883-2.13501-1.7967v-.21h-.99167v.1517c0 1.0383.45501 1.7033 1.36501 1.9133h-1.33v.98zm-6.95335-4.8219c0-.3733-.25667-.6416-.61834-.6416s-.61833.2683-.61833.6416c0 .385.25666.6417.61833.6417s.61834-.2567.61834-.6417zm6.95335.525v-1.0383h-5.99668v1.0383zm0-5.0381v-.8283h-.8517v.6067c0 .6183-.2333.8166-.79331.8166h-3.50001v-1.47h-.85167v1.47h-1.70333v1.05h1.70333l.00001.98h.85166v-.98h3.52335c1.02667 0 1.62167-.49 1.62167-1.645zm.14-4.6444c0-1.715-1.16667-2.7067-2.66001-2.7067h-.95667c-1.48167 0-2.66001.9917-2.66001 2.7067 0 1.7267 1.17834 2.7183 2.66001 2.7183h.95667c1.49334 0 2.66001-.9916 2.66001-2.7183zm-.8283 0c0 1.12-.75837 1.7033-1.82004 1.7033h-.98c-1.05001 0-1.80834-.5833-1.80834-1.7033 0-1.1083.75833-1.6917 1.80833-1.6917h.98001c1.06167 0 1.82004.5834 1.82004 1.6917zm.6883-4.2384v-1.0383h-3.53501c-1.13167 0-1.69167-.6884-1.69167-1.61 0-1.0034.64166-1.4234 1.58667-1.4234h3.64001v-1.05h-3.79168c-1.44667 0-2.34501.8517-2.34501 2.1817 0 1.0033.44334 1.6683 1.09667 1.9483h-.95667v.9917zm14.1633 30.0008c0-1.9366-1.3416-3.15-2.905-3.2666v1.015c1.0734.14 2.0184.8516 2.0184 2.2633 0 1.5983-1.12 2.345-2.6484 2.345h-1.4233c-1.5284 0-2.6484-.7467-2.6484-2.345 0-1.4117.945-2.1233 2.0184-2.2633v-1.015c-1.5634.1166-2.905 1.33-2.905 3.2666 0 2.2984 1.54 3.43 3.5817 3.43h1.33c2.0416 0 3.5816-1.1316 3.5816-3.43zm-.0233-7.3167c0-1.715-1.1667-2.7067-2.66-2.7067h-.9567c-1.4816 0-2.66.9917-2.66 2.7067 0 1.7267 1.1784 2.7183 2.66 2.7183h.9567c1.4933 0 2.66-.9916 2.66-2.7183zm-.8283 0c0 1.12-.7584 1.7033-1.82 1.7033h-.98c-1.05 0-1.8084-.5833-1.8084-1.7033 0-1.1084.7584-1.6917 1.8084-1.6917h.98c1.0616 0 1.82.5833 1.82 1.6917zm.6883-4.2384v-1.0383h-3.535c-1.1317 0-1.6917-.665-1.6917-1.575 0-.9334.6417-1.4 1.5867-1.4h3.64v-1.0384h-3.535c-1.1317 0-1.6917-.665-1.6917-1.575 0-.9333.6417-1.3883 1.5867-1.3883h3.64v-1.05h-3.7917c-1.4233 0-2.345.8516-2.345 2.1466 0 1.015.4317 1.7267 1.0967 2.135-.6767.35-1.0967 1.0034-1.0967 1.8667 0 1.0034.4433 1.645 1.0967 1.925h-.9567v.9917zm2.03-10.8236v-1.0383h-2.8583c.5716-.35.9683-1.0384.9683-1.9367 0-1.54-1.1433-2.4967-2.6717-2.4967h-.9333c-1.4933 0-2.6717.8983-2.6717 2.5084 0 .9683.5017 1.7033 1.0267 1.9716h-.8867v.9917zm-2.7417-2.765c0 .9333-.7 1.7267-1.855 1.7267h-.7933c-1.0967 0-1.925-.6184-1.925-1.715 0-1.1667.84-1.6684 1.8667-1.6684h.84c1.05 0 1.8666.5834 1.8666 1.6567zm-6.2417-4.8255c0-.3733-.2566-.6416-.6183-.6416s-.6183.2683-.6183.6416c0 .385.2566.6417.6183.6417s.6183-.2567.6183-.6417zm6.9534.525v-1.0383h-5.9967v1.0383zm0-2.9731v-1.05h-8.5167v1.05zm.14-5.3072c0-1.2717-.77-2.2867-1.855-2.485v.9333c.6183.1867 1.0733.7 1.0733 1.5517 0 1.1783-.7933 1.6683-1.75 1.6683h-.1983v-4.2117h-.9333c-1.4584 0-2.6134.8517-2.6134 2.5784 0 1.715 1.0967 2.6483 2.7184 2.6483h.9333c1.6333 0 2.625-1.0966 2.625-2.6833zm-3.5117 1.6683h-.1516c-1.0384 0-1.8317-.4316-1.8317-1.6333 0-1.0967.735-1.5984 1.7383-1.5984h.245zm3.3717-5.748v-1.0384h-2.905c-1.435 0-2.135-.6883-2.135-1.7966v-.21h-.9917v.1516c0 1.0384.455 1.7034 1.365 1.9134h-1.33v.98z" fill="#191927"/></g></svg>